<?xml version="1.0" encoding="utf-8"?>
<!-- Generator: Adobe Illustrator 16.0.0, SVG Export Plug-In . SVG Version: 6.00 Build 0)  -->
<!DOCTYPE svg PUBLIC "-//W3C//DTD SVG 1.1//EN" "http://www.w3.org/Graphics/SVG/1.1/DTD/svg11.dtd">
<svg version="1.1" id="Layer_1" xmlns="http://www.w3.org/2000/svg" xmlns:xlink="http://www.w3.org/1999/xlink" x="0px" y="0px"
	 width="960px" height="560px" viewBox="0 0 960 560" enable-background="new 0 0 960 560" xml:space="preserve">
<polygon fill="none" stroke="#FFFFFF" stroke-width="6" stroke-miterlimit="10" points="351,87 402,87 441,128 510,128 550,87 
	591,87 591,128 550,128 510,166 441,166 402,128 351,128 "/>
<polygon fill="none" stroke="#FFFFFF" stroke-width="6" stroke-miterlimit="10" points="351,166 402,166 441,204 510,204 550,166 
	591,166 591,204 550,204 510,244 441,244 402,204 351,204 "/>
<polygon fill="none" stroke="#FFFFFF" stroke-width="6" stroke-miterlimit="10" points="351,244 402,244 441,282 510,282 550,244 
	591,244 591,282 550,282 510,322 441,322 402,282 351,282 "/>
<polygon fill="none" stroke="#FFFFFF" stroke-width="6" stroke-miterlimit="10" points="351,322 402,322 441,360 510,360 550,322 
	591,322 591,360 550,360 510,397 441,397 402,360 351,360 "/>
</svg>
